<?xml version="1.0" encoding="utf-8"?>
<!-- Generator: Adobe Illustrator 16.0.0, SVG Export Plug-In . SVG Version: 6.00 Build 0)  -->
<!DOCTYPE svg PUBLIC "-//W3C//DTD SVG 1.1//EN" "http://www.w3.org/Graphics/SVG/1.1/DTD/svg11.dtd">
<svg version="1.1" xmlns="http://www.w3.org/2000/svg" xmlns:xlink="http://www.w3.org/1999/xlink" x="0px" y="0px"
	 width="55.996px" height="55.992px" viewBox="0 0 55.996 55.992" enable-background="new 0 0 55.996 55.992" xml:space="preserve">
<g id="Guides" display="none">
</g>
<g id="_x31_2_Col_Grid" display="none" opacity="0.1" enable-background="new    ">
</g>
<g id="Layer_3">
	<g>
		<path fill-rule="evenodd" clip-rule="evenodd" fill="#FFFFFF" d="M49.063,24.352c-0.484,0-0.877-0.396-0.877-0.876
			c0-0.484,0.393-0.875,0.877-0.875h5.182V19.83h-3.973c-0.484,0-0.875-0.391-0.875-0.876c0-0.483,0.391-0.875,0.875-0.875H55.1
			h0.021c0.484,0,0.875,0.392,0.875,0.875v4.496v0.025c0,0.48-0.391,0.876-0.875,0.876H49.063L49.063,24.352z M35.848,18.079
			c0.48,0,0.875,0.392,0.875,0.875c0,0.485-0.395,0.876-0.875,0.876H1.75v2.771h32.887c0.48,0,0.873,0.391,0.873,0.875
			c0,0.48-0.393,0.876-0.873,0.876H0.898H0.875C0.395,24.352,0,23.956,0,23.476v-4.499v-0.022c0-0.483,0.395-0.875,0.875-0.875
			H35.848z"/>
		<path fill-rule="evenodd" clip-rule="evenodd" fill="#FFFFFF" d="M47.461,9.065L44.16,8.182l-7.359,27.451l0.414,5.069
			l2.887-4.176L47.461,9.065L47.461,9.065z M43.764,6.268l4.992,1.335c0.465,0.124,0.74,0.604,0.619,1.071L41.75,37.117l0,0
			c-0.029,0.093-0.068,0.186-0.125,0.271l-4.336,6.272c-0.139,0.231-0.389,0.398-0.68,0.42c-0.48,0.036-0.904-0.323-0.941-0.804
			l-0.623-7.654c-0.006-0.096,0.004-0.195,0.027-0.292l7.623-28.443C42.816,6.417,43.299,6.143,43.764,6.268z"/>
		<path fill-rule="evenodd" clip-rule="evenodd" fill="#FFFFFF" d="M36.416,36.271c-0.391,0.271-0.939,0.178-1.213-0.218
			c-0.275-0.395-0.178-0.937,0.217-1.213c0.199-0.14,0.406-0.261,0.615-0.356c0.916-0.424,1.955-0.484,2.902-0.229
			c0.951,0.257,1.822,0.826,2.406,1.651c0.135,0.193,0.256,0.399,0.355,0.62c0.203,0.435,0.012,0.954-0.426,1.157
			c-0.436,0.203-0.955,0.01-1.158-0.428c-0.057-0.121-0.125-0.238-0.203-0.345c-0.334-0.481-0.854-0.815-1.424-0.969
			c-0.568-0.149-1.189-0.121-1.723,0.125C36.645,36.124,36.523,36.191,36.416,36.271z"/>
		<path fill-rule="evenodd" clip-rule="evenodd" fill="#FFFFFF" d="M35.697,42.983c0.121-0.466,0.605-0.743,1.068-0.619
			c0.467,0.125,0.744,0.605,0.619,1.068l-0.533,1.997c-0.125,0.467-0.605,0.744-1.072,0.619c-0.467-0.124-0.744-0.602-0.615-1.071
			L35.697,42.983z"/>
		<path fill-rule="evenodd" clip-rule="evenodd" fill="#FFFFFF" d="M48.756,7.603c0.465,0.124,0.74,0.604,0.619,1.071
			c-0.125,0.463-0.605,0.74-1.068,0.619l-1.25-0.335l-1.248-0.334l-1.246-0.335l-1.246-0.334c-0.471-0.125-0.744-0.605-0.621-1.068
			l0.418-1.559l0.416-1.561l0.42-1.559l0.42-1.56c0.121-0.47,0.602-0.743,1.068-0.619l1.246,0.334l1.246,0.335l1.25,0.332
			l1.248,0.337c0.463,0.122,0.742,0.603,0.621,1.068l-0.42,1.56l-0.42,1.559c-0.121,0.464-0.604,0.74-1.068,0.62
			c-0.467-0.125-0.74-0.605-0.619-1.071l0.42-1.56l0.191-0.716l-0.406-0.107L47.48,2.387l-1.246-0.335L45.83,1.945l-0.193,0.712
			l-0.416,1.56l-0.418,1.559l-0.191,0.716l0.402,0.11l1.246,0.335l1.25,0.334L48.756,7.603z"/>
		<path fill-rule="evenodd" clip-rule="evenodd" fill="#FFFFFF" d="M52.799,4.11c0.123-0.463,0.602-0.741,1.068-0.619
			c0.467,0.123,0.744,0.604,0.619,1.07l-2.852,10.642c-0.125,0.47-0.604,0.743-1.07,0.619c-0.463-0.121-0.74-0.602-0.621-1.068
			L52.799,4.11z"/>
		<path fill-rule="evenodd" clip-rule="evenodd" fill="#FFFFFF" d="M53.334,5.487c0.463,0.125,0.74,0.602,0.619,1.071
			c-0.125,0.463-0.605,0.741-1.072,0.62l-3.74-1.004c-0.467-0.125-0.74-0.605-0.619-1.071c0.123-0.467,0.604-0.745,1.066-0.616
			L53.334,5.487z"/>
		<path fill-rule="evenodd" clip-rule="evenodd" fill="#FFFFFF" d="M31.391,44.693c0.48,0,0.871,0.392,0.871,0.875
			c0,0.484-0.391,0.876-0.871,0.876H7.66c-0.484,0-0.877-0.392-0.877-0.876c0-0.483,0.393-0.875,0.877-0.875H31.391z"/>
		<path fill-rule="evenodd" clip-rule="evenodd" fill="#FFFFFF" d="M48.342,33.394c0.482,0,0.877,0.392,0.877,0.876
			c0,0.48-0.395,0.876-0.877,0.876h-2.174c-0.48,0-0.873-0.396-0.873-0.876c0-0.484,0.393-0.876,0.873-0.876H48.342L48.342,33.394z
			 M31.742,33.394c0.48,0,0.875,0.392,0.875,0.876c0,0.48-0.395,0.876-0.875,0.876H7.66c-0.484,0-0.877-0.396-0.877-0.876
			c0-0.484,0.393-0.876,0.877-0.876H31.742z"/>
		<path fill-rule="evenodd" clip-rule="evenodd" fill="#FFFFFF" d="M48.342,28.873c0.482,0,0.877,0.392,0.877,0.876
			c0,0.483-0.395,0.875-0.877,0.875h-0.961c-0.484,0-0.875-0.392-0.875-0.875c0-0.484,0.391-0.876,0.875-0.876H48.342L48.342,28.873
			z M32.953,28.873c0.48,0,0.875,0.392,0.875,0.876c0,0.483-0.395,0.875-0.875,0.875H7.66c-0.484,0-0.877-0.392-0.877-0.875
			c0-0.484,0.393-0.876,0.877-0.876H32.953z"/>
		<path fill-rule="evenodd" clip-rule="evenodd" fill="#FFFFFF" d="M0,27.997c0-0.484,0.395-0.876,0.875-0.876
			c0.484,0,0.875,0.392,0.875,0.876v24.862c0,0.377,0.156,0.723,0.41,0.976l0.039,0.038c0.242,0.229,0.576,0.367,0.939,0.367h49.721
			c0.383,0,0.727-0.156,0.979-0.402l0.004-0.003c0.246-0.25,0.402-0.599,0.402-0.976V27.997c0-0.484,0.393-0.876,0.877-0.876
			s0.875,0.392,0.875,0.876v24.862c0,0.854-0.355,1.641-0.918,2.207l-0.008,0.007c-0.568,0.566-1.35,0.919-2.211,0.919H3.139
			c-0.828,0-1.588-0.328-2.15-0.861l-0.064-0.058C0.355,54.504,0,53.717,0,52.859V27.997z"/>
		<path fill-rule="evenodd" clip-rule="evenodd" fill="#FFFFFF" d="M48.342,37.915c0.482,0,0.877,0.392,0.877,0.875
			c0,0.481-0.395,0.873-0.877,0.873h-3.096c-0.48,0-0.873-0.392-0.873-0.873c0-0.483,0.393-0.875,0.873-0.875H48.342L48.342,37.915z
			 M31.66,37.915c0.484,0,0.877,0.392,0.877,0.875c0,0.481-0.393,0.873-0.877,0.873h-24c-0.484,0-0.877-0.392-0.877-0.873
			c0-0.483,0.393-0.875,0.877-0.875H31.66z"/>
	</g>
</g>
</svg>
