<?xml version="1.0" encoding="utf-8"?>
<!-- Generator: Adobe Illustrator 16.0.0, SVG Export Plug-In . SVG Version: 6.00 Build 0)  -->
<!DOCTYPE svg PUBLIC "-//W3C//DTD SVG 1.1//EN" "http://www.w3.org/Graphics/SVG/1.1/DTD/svg11.dtd">
<svg version="1.1" xmlns="http://www.w3.org/2000/svg" xmlns:xlink="http://www.w3.org/1999/xlink" x="0px" y="0px"
	 width="74.747px" height="74.747px" viewBox="0 0 74.747 74.747" enable-background="new 0 0 74.747 74.747" xml:space="preserve">
<g id="Guides" display="none">
</g>
<g id="_x31_2_Col_Grid" display="none" opacity="0.1" enable-background="new    ">
</g>
<g id="Layer_3">
	<g>
		<path fill="#575756" d="M37.407,37.328v0.091h-0.068C37.361,37.396,37.385,37.373,37.407,37.328z"/>
	</g>
	<path fill="#575756" d="M37.407,37.328v0.091h-0.068C37.361,37.396,37.385,37.373,37.407,37.328z"/>
	<g>
		<path fill="none" d="M41.706,33.484c-0.022,0.045-0.046,0.068-0.073,0.09h0.073V33.484z"/>
		<path fill="#575756" d="M15.043,24.594c-0.1,0.186-0.17,0.391-0.17,0.615v25.328c0,0.736,0.599,1.336,1.335,1.336h42.33
			c0.736,0,1.335-0.6,1.335-1.336V25.209c0-0.389-0.173-0.732-0.439-0.977L37.28,39.752L15.043,24.594z"/>
		<path fill="#575756" d="M63.193-0.127H11.553c-6.45,0-11.68,5.229-11.68,11.68v51.643c0,6.449,5.229,11.678,11.68,11.678h51.641
			c6.45,0,11.68-5.229,11.68-11.678V11.553C74.873,5.102,69.644-0.127,63.193-0.127z M61.873,50.537c0,1.84-1.496,3.336-3.335,3.336
			h-42.33c-1.839,0-3.335-1.496-3.335-3.336V25.209c0-1.84,1.496-3.336,3.335-3.336h42.33c1.839,0,3.335,1.496,3.335,3.336V50.537z"
			/>
		<path fill="#575756" d="M56.459,23.873H17.538L37.265,37.32L56.459,23.873z M41.706,33.484v0.09h-0.073
			C41.66,33.553,41.684,33.529,41.706,33.484z"/>
	</g>
</g>
</svg>
