<?xml version="1.0" encoding="utf-8"?>
<!-- Generator: Adobe Illustrator 16.0.0, SVG Export Plug-In . SVG Version: 6.00 Build 0)  -->
<!DOCTYPE svg PUBLIC "-//W3C//DTD SVG 1.1//EN" "http://www.w3.org/Graphics/SVG/1.1/DTD/svg11.dtd">
<svg version="1.1" xmlns="http://www.w3.org/2000/svg" xmlns:xlink="http://www.w3.org/1999/xlink" x="0px" y="0px"
	 width="74.747px" height="74.747px" viewBox="0 0 74.747 74.747" enable-background="new 0 0 74.747 74.747" xml:space="preserve">
<g id="Guides" display="none">
</g>
<g id="_x31_2_Col_Grid" display="none" opacity="0.1" enable-background="new    ">
</g>
<g id="Layer_3">
	<g>
		<path fill="#575756" d="M63.067,0H11.679C5.228,0,0,5.233,0,11.68v51.388c0,6.451,5.228,11.68,11.679,11.68h51.388
			c6.447,0,11.68-5.229,11.68-11.68V11.68C74.747,5.233,69.514,0,63.067,0z M27.172,55.234h-8.016V31.137h8.016V55.234z
			 M23.163,27.848h-0.051c-2.687,0-4.425-1.856-4.425-4.165c0-2.368,1.793-4.17,4.53-4.17c2.741,0,4.43,1.802,4.479,4.17
			C27.697,25.991,25.958,27.848,23.163,27.848z M56.06,55.234h-8.011V42.342c0-3.239-1.159-5.452-4.061-5.452
			c-2.213,0-3.531,1.497-4.11,2.934c-0.215,0.516-0.265,1.231-0.265,1.953v13.458h-8.012c0,0,0.105-21.839,0-24.098h8.012v3.413
			c1.067-1.643,2.97-3.979,7.222-3.979c5.27,0,9.225,3.444,9.225,10.849V55.234z"/>
		<path fill="#575756" d="M39.614,34.627V34.55c-0.014,0.027-0.037,0.055-0.055,0.077H39.614z"/>
	</g>
</g>
</svg>
