<?xml version="1.0" encoding="utf-8"?>
<!-- Generator: Adobe Illustrator 16.0.0, SVG Export Plug-In . SVG Version: 6.00 Build 0)  -->
<!DOCTYPE svg PUBLIC "-//W3C//DTD SVG 1.1//EN" "http://www.w3.org/Graphics/SVG/1.1/DTD/svg11.dtd">
<svg version="1.1" xmlns="http://www.w3.org/2000/svg" xmlns:xlink="http://www.w3.org/1999/xlink" x="0px" y="0px"
	 width="156.465px" height="156.397px" viewBox="0 0 156.465 156.397" enable-background="new 0 0 156.465 156.397"
	 xml:space="preserve">
<g id="Guides" display="none">
</g>
<g id="_x31_2_Col_Grid" display="none" opacity="0.1" enable-background="new    ">
</g>
<g id="Layer_3">
	<g>
		<g>
			<path fill-rule="evenodd" clip-rule="evenodd" fill="#A7C244" d="M95.192,59.509c1.933-1.203,2.729-2.805,2.362-4.949
				c-0.064-0.374-0.006-0.77-0.007-1.156c-0.002-0.941,0.124-1.928,1.302-1.913c1.185,0.015,1.253,1.003,1.231,1.945
				c-0.022,0.981-0.005,1.966-0.005,3.179c1.103,0,2.107-0.144,3.039,0.055c0.551,0.116,0.988,0.772,1.477,1.186
				c-0.49,0.421-0.938,0.913-1.486,1.233c-0.291,0.17-0.767,0.102-1.14,0.035c-2.188-0.389-3.678,0.609-4.802,2.366
				c10.516,12.178,7.655,28.867-2.898,37.532c-10.319,8.474-25.548,7.718-34.944-1.764c-9.39-9.476-10.09-24.565-1.663-34.827
				C66.301,51.905,82.944,48.983,95.192,59.509z M93.283,61.426c-9.332-8.416-24.066-7.776-32.502,1.339
				c-8.867,9.581-8.598,24.066,0.613,32.957c9.291,8.967,23.944,8.862,32.975-0.235c8.735-8.803,9.133-23.601,0.932-31.99
				c-1.604,1.572-3.209,3.144-4.815,4.718c5.706,10.172,4.864,17.881-2.925,23.912c-6.195,4.799-14.854,4.562-21.225-1.288
				c-5.731-5.263-6.785-14.378-2.316-21.051c2.322-3.466,5.559-5.776,9.637-6.827c5.521-1.423,10.431,0.003,14.787,3.302
				C90.119,64.589,91.676,63.032,93.283,61.426z M86.602,68.312c-5.192-4.777-13.898-4.306-18.847,0.871
				c-5.306,5.553-5.22,14.399,0.189,19.684c5.482,5.355,14.28,5.329,19.688-0.06c5.062-5.043,5.468-13.742,0.684-18.759
				c-1.685,1.729-3.396,3.434-5.021,5.213c-0.218,0.237-0.048,0.862-0.002,1.303c0.124,1.188,0.561,2.422,0.368,3.552
				c-0.588,3.459-4.098,5.55-7.501,4.664c-3.267-0.851-5.194-4.398-4.179-7.688c1.002-3.247,4.569-4.978,7.854-3.852
				c0.504,0.173,1.318,0.378,1.592,0.13C83.212,71.752,84.887,70.013,86.602,68.312z M78.926,75.813
				c-1.936-0.587-3.288-0.126-4.164,1.352c-0.837,1.412-0.55,3.285,0.67,4.363c1.193,1.056,2.955,1.165,4.273,0.268
				c1.41-0.961,1.793-2.292,1.102-4.019c-0.26,0.23-0.478,0.479-0.745,0.648c-0.984,0.628-1.661,2.756-3.126,1.271
				c-1.354-1.371,0.631-2.068,1.268-3.006C78.407,76.392,78.665,76.127,78.926,75.813z"/>
			<path fill-rule="evenodd" clip-rule="evenodd" fill="#A7C244" d="M78.926,75.813c-0.261,0.314-0.519,0.579-0.723,0.878
				c-0.637,0.938-2.621,1.635-1.268,3.006c1.465,1.484,2.142-0.644,3.126-1.271c0.268-0.17,0.485-0.418,0.745-0.648
				c0.691,1.727,0.309,3.058-1.102,4.019c-1.318,0.897-3.08,0.788-4.273-0.268c-1.22-1.078-1.507-2.951-0.67-4.363
				C75.638,75.687,76.99,75.226,78.926,75.813z"/>
		</g>
		<g>
			<g>
				<path fill="#5E8039" d="M156.465,78.209c0-42.94-35.676-77.896-77.676-78.175v12c36,0.277,65.676,29.851,65.676,66.175
					s-29.676,65.898-65.676,66.176v12C120.789,156.106,156.465,121.15,156.465,78.209z"/>
			</g>
			<g>
				<path fill="#A7C244" d="M78.112,144.397c-36.496,0-66.271-29.692-66.271-66.188s29.815-66.188,66.312-66.188
					c0.172,0-0.364,0.012,0.636,0.013v-12c-1-0.001-0.505-0.013-0.677-0.013C35,0.021-0.158,35.097-0.158,78.209
					c0,43.113,35.198,78.188,78.312,78.188c0.172,0-0.364-0.012,0.636-0.013v-12C77.789,144.386,78.284,144.397,78.112,144.397z"/>
			</g>
			<circle fill="#A7C244" cx="78.001" cy="6" r="6"/>
			<circle fill="#5E8039" cx="78.001" cy="150.359" r="6"/>
		</g>
	</g>
</g>
</svg>
