<?xml version="1.0" encoding="utf-8"?>
<!-- Generator: Adobe Illustrator 16.0.0, SVG Export Plug-In . SVG Version: 6.00 Build 0)  -->
<!DOCTYPE svg PUBLIC "-//W3C//DTD SVG 1.1//EN" "http://www.w3.org/Graphics/SVG/1.1/DTD/svg11.dtd">
<svg version="1.1" xmlns="http://www.w3.org/2000/svg" xmlns:xlink="http://www.w3.org/1999/xlink" x="0px" y="0px"
	 width="156.785px" height="156.397px" viewBox="0 0 156.785 156.397" enable-background="new 0 0 156.785 156.397"
	 xml:space="preserve">
<g id="Guides" display="none">
</g>
<g id="_x31_2_Col_Grid" display="none" opacity="0.1" enable-background="new    ">
</g>
<g id="Layer_3">
	<g>
		<g>
			<path fill="#A7C244" d="M78.64,61.042c-20.83,0-31.23,15.242-31.664,15.891c-0.447,0.672-0.447,1.547,0,2.219
				C47.409,79.8,57.81,95.042,78.64,95.042c20.832,0,31.232-15.242,31.664-15.891c0.449-0.672,0.449-1.547,0-2.219
				C109.872,76.284,99.472,61.042,78.64,61.042z M78.64,91.042c-15.506,0-24.766-9.678-27.488-13.004
				c2.713-3.333,11.924-12.996,27.488-12.996c15.508,0,24.766,9.678,27.488,13.004C103.415,81.379,94.204,91.042,78.64,91.042z"/>
			<path fill="#A7C244" d="M78.64,69.042c-4.963,0-9,4.037-9,9s4.037,9,9,9s9-4.037,9-9S83.603,69.042,78.64,69.042z M78.64,83.042
				c-2.756,0-5-2.243-5-5s2.244-5,5-5c2.758,0,5,2.243,5,5S81.397,83.042,78.64,83.042z"/>
		</g>
		<g>
			<g>
				<path fill="#5E8039" d="M156.996,78.209c0-42.94-35.676-77.896-77.676-78.175v12c36,0.277,65.676,29.851,65.676,66.175
					s-29.676,65.898-65.676,66.176v12C121.32,156.106,156.996,121.15,156.996,78.209z"/>
			</g>
			<g>
				<path fill="#A7C244" d="M78.395,144.397C41.898,144.397,12,114.705,12,78.209s30.003-66.188,66.499-66.188
					c0.172,0-0.179,0.012,0.821,0.013v-12c-1-0.001-0.754-0.013-0.926-0.013C35.283,0.021,0,35.097,0,78.209
					c0,43.113,35.386,78.188,78.499,78.188c0.172,0-0.179-0.012,0.821-0.013v-12C78.32,144.386,78.566,144.397,78.395,144.397z"/>
			</g>
			<circle fill="#A7C244" cx="78.035" cy="6" r="6"/>
			<circle fill="#5E8039" cx="78.035" cy="150.359" r="6"/>
		</g>
	</g>
</g>
</svg>
