<?xml version="1.0" encoding="utf-8"?>
<!-- Generator: Adobe Illustrator 16.0.0, SVG Export Plug-In . SVG Version: 6.00 Build 0)  -->
<!DOCTYPE svg PUBLIC "-//W3C//DTD SVG 1.1//EN" "http://www.w3.org/Graphics/SVG/1.1/DTD/svg11.dtd">
<svg version="1.1" xmlns="http://www.w3.org/2000/svg" xmlns:xlink="http://www.w3.org/1999/xlink" x="0px" y="0px"
	 width="29.645px" height="29.646px" viewBox="0 0 29.645 29.646" enable-background="new 0 0 29.645 29.646" xml:space="preserve">
<g id="Guides" display="none">
</g>
<g id="_x31_2_Col_Grid" display="none" opacity="0.1" enable-background="new    ">
</g>
<g id="Layer_3">
	<g>
		<g>
			<path fill="#A7C244" d="M25.358,25.304c2.801-2.799,4.342-6.521,4.342-10.48s-1.541-7.682-4.342-10.48
				C22.559,1.542,18.836,0,14.877,0S7.196,1.542,4.397,4.343c-2.8,2.799-4.342,6.521-4.342,10.48s1.542,7.682,4.342,10.48
				c2.799,2.801,6.521,4.342,10.48,4.342S22.559,28.104,25.358,25.304z M27.847,14.823c0,3.464-1.349,6.721-3.799,9.171
				s-5.707,3.799-9.171,3.799s-6.721-1.349-9.17-3.799c-2.451-2.45-3.8-5.707-3.8-9.171s1.349-6.721,3.799-9.171
				s5.707-3.8,9.171-3.8s6.721,1.35,9.171,3.8S27.847,11.359,27.847,14.823z"/>
			<path fill="#A7C244" d="M19.973,14.823c0-0.284-0.131-0.553-0.354-0.729l-6.484-5.096c-0.167-0.13-0.369-0.197-0.573-0.197
				c-0.138,0-0.275,0.03-0.404,0.093c-0.319,0.155-0.521,0.479-0.521,0.833v10.191c0,0.354,0.202,0.678,0.521,0.832
				c0.318,0.155,0.698,0.114,0.978-0.104l6.484-5.095C19.842,15.376,19.973,15.107,19.973,14.823z M17.547,14.823l-4.06,3.189
				v-6.379L17.547,14.823z"/>
		</g>
	</g>
</g>
</svg>
