<?xml version="1.0" encoding="utf-8"?>
<!-- Generator: Adobe Illustrator 16.0.0, SVG Export Plug-In . SVG Version: 6.00 Build 0)  -->
<!DOCTYPE svg PUBLIC "-//W3C//DTD SVG 1.1//EN" "http://www.w3.org/Graphics/SVG/1.1/DTD/svg11.dtd">
<svg version="1.1" xmlns="http://www.w3.org/2000/svg" xmlns:xlink="http://www.w3.org/1999/xlink" x="0px" y="0px"
	 width="29.645px" height="29.646px" viewBox="0 0 29.645 29.646" enable-background="new 0 0 29.645 29.646" xml:space="preserve">
<g id="Guides" display="none">
</g>
<g id="_x31_2_Col_Grid" display="none" opacity="0.1" enable-background="new    ">
</g>
<g id="Layer_3">
	<g>
		<g>
			<path fill="#A7C244" d="M14.989,29.646c3.959,0,7.682-1.541,10.48-4.342c2.8-2.799,4.342-6.521,4.342-10.48
				s-1.542-7.682-4.342-10.48C22.67,1.542,18.948,0,14.989,0S7.307,1.542,4.508,4.343c-2.801,2.799-4.342,6.521-4.342,10.48
				s1.541,7.682,4.342,10.48C7.307,28.104,11.03,29.646,14.989,29.646z M5.818,5.652c2.45-2.45,5.707-3.8,9.171-3.8
				s6.721,1.35,9.171,3.8s3.799,5.707,3.799,9.171s-1.349,6.721-3.8,9.171c-2.449,2.45-5.706,3.799-9.17,3.799
				s-6.721-1.349-9.171-3.799s-3.799-5.707-3.799-9.171S3.368,8.103,5.818,5.652z"/>
			<path fill="#A7C244" d="M10.248,15.552l6.484,5.095c0.279,0.219,0.659,0.26,0.978,0.104c0.319-0.154,0.521-0.479,0.521-0.832
				V9.728c0-0.354-0.202-0.678-0.521-0.833c-0.129-0.063-0.267-0.093-0.404-0.093c-0.204,0-0.406,0.067-0.573,0.197l-6.484,5.096
				c-0.224,0.176-0.354,0.444-0.354,0.729S10.024,15.376,10.248,15.552z M16.378,11.634v6.379l-4.06-3.189L16.378,11.634z"/>
		</g>
	</g>
</g>
</svg>
