<?xml version="1.0" encoding="utf-8"?>
<!-- Generator: Adobe Illustrator 16.0.0, SVG Export Plug-In . SVG Version: 6.00 Build 0)  -->
<!DOCTYPE svg PUBLIC "-//W3C//DTD SVG 1.1//EN" "http://www.w3.org/Graphics/SVG/1.1/DTD/svg11.dtd">
<svg version="1.1" xmlns="http://www.w3.org/2000/svg" xmlns:xlink="http://www.w3.org/1999/xlink" x="0px" y="0px"
	 width="132.357px" height="131.094px" viewBox="0 0 132.357 131.094" enable-background="new 0 0 132.357 131.094"
	 xml:space="preserve">
<g id="Guides" display="none">
</g>
<g id="_x31_2_Col_Grid" display="none" opacity="0.1" enable-background="new    ">
</g>
<g id="Layer_3">
	<g>
		<g>
			
				<path fill-rule="evenodd" clip-rule="evenodd" fill="none" stroke="#A7C244" stroke-width="2" stroke-linecap="round" stroke-linejoin="round" stroke-miterlimit="10" d="
				M64.349,105.328c0.188-1.432,0.408-2.668,0.502-3.914c0.291-3.881-0.283-7.557-2.898-10.639
				c-3.297-3.883-7.857-5.908-12.248-8.416c-0.119,0.504-0.256,0.822-0.26,1.143c-0.031,2.723-0.156,5.451-0.021,8.166
				c0.176,3.49,1.709,6.363,4.529,8.488C57.034,102.482,60.579,103.875,64.349,105.328z M64.354,65.693
				c0.188-1.455,0.408-2.693,0.5-3.941c0.264-3.604-0.186-7.068-2.455-10.037c-3.271-4.283-8.1-6.354-12.695-8.988
				c-0.123,0.525-0.26,0.846-0.264,1.168c-0.027,2.725-0.15,5.455-0.014,8.17c0.17,3.398,1.648,6.209,4.363,8.318
				C56.911,62.809,60.544,64.211,64.354,65.693z M49.757,62.813c-0.115,0.268-0.232,0.416-0.232,0.564
				c-0.008,3.26-0.244,6.543,0.059,9.777c0.398,4.248,3.127,7.051,6.756,8.961c2.537,1.334,5.184,2.465,7.984,3.781
				c0.213-1.602,0.432-2.83,0.529-4.068c0.332-4.266-0.457-8.217-3.551-11.4C58.028,67.059,53.827,65.092,49.757,62.813z
				 M83.599,62.592c-3.018,1.826-5.842,3.395-8.518,5.182c-6.418,4.287-7.828,9.955-6.078,17.93
				c4.215-1.709,8.504-3.197,11.797-6.525c1.49-1.51,2.396-3.355,2.783-5.412C84.255,70.182,84.003,66.58,83.599,62.592z
				 M68.997,65.934c3.209-1.623,6.305-3.014,9.221-4.711c3.09-1.799,5.092-4.564,5.436-8.191c0.258-2.746,0.166-5.525,0.182-8.289
				c0.006-0.633-0.189-1.266-0.371-2.385c-3.816,2.574-7.402,4.822-10.787,7.342c-2.211,1.646-3.479,4.094-4.02,6.807
				C68.058,59.504,68.265,62.51,68.997,65.934z M69.052,105.387c2.428-1.113,4.836-2.16,7.193-3.313
				c4.965-2.428,7.717-6.328,7.693-11.969c-0.008-2.525-0.107-5.051-0.166-7.578c-0.162-0.074-0.324-0.148-0.486-0.223
				c-3.047,1.908-6.195,3.672-9.119,5.754C68.364,92.189,67.364,98.164,69.052,105.387z M66.22,51.121
				c0.168-0.025,0.334-0.049,0.504-0.074c1.936-3.021,4.131-5.895,5.338-9.344c0.703-2.012,0.893-4.148-0.008-6.027
				c-1.617-3.387-3.563-6.619-5.379-9.91c-0.021-0.041-0.148-0.023-0.457-0.061c-1.574,2.76-3.281,5.551-4.789,8.445
				c-1.32,2.537-1.545,5.316-0.285,7.898C62.659,45.158,64.513,48.104,66.22,51.121z"/>
			
				<path fill-rule="evenodd" clip-rule="evenodd" fill="none" stroke="#A7C244" stroke-width="2" stroke-linecap="round" stroke-linejoin="round" stroke-miterlimit="10" d="
				M64.349,105.328c-3.77-1.453-7.314-2.846-10.396-5.172c-2.82-2.125-4.354-4.998-4.529-8.488c-0.135-2.715-0.01-5.443,0.021-8.166
				c0.004-0.32,0.141-0.639,0.26-1.143c4.391,2.508,8.951,4.533,12.248,8.416c2.615,3.082,3.189,6.758,2.898,10.639
				C64.757,102.66,64.536,103.896,64.349,105.328z"/>
			
				<path fill-rule="evenodd" clip-rule="evenodd" fill="none" stroke="#A7C244" stroke-width="2" stroke-linecap="round" stroke-linejoin="round" stroke-miterlimit="10" d="
				M64.354,65.693c-3.811-1.482-7.443-2.885-10.564-5.311c-2.715-2.109-4.193-4.92-4.363-8.318c-0.137-2.715-0.014-5.445,0.014-8.17
				c0.004-0.322,0.141-0.643,0.264-1.168c4.596,2.635,9.424,4.705,12.695,8.988c2.27,2.969,2.719,6.434,2.455,10.037
				C64.763,63,64.542,64.238,64.354,65.693z"/>
			
				<path fill-rule="evenodd" clip-rule="evenodd" fill="none" stroke="#A7C244" stroke-width="2" stroke-linecap="round" stroke-linejoin="round" stroke-miterlimit="10" d="
				M49.757,62.813c4.07,2.279,8.271,4.246,11.545,7.615c3.094,3.184,3.883,7.135,3.551,11.4c-0.098,1.238-0.316,2.467-0.529,4.068
				c-2.801-1.316-5.447-2.447-7.984-3.781c-3.629-1.91-6.357-4.713-6.756-8.961c-0.303-3.234-0.066-6.518-0.059-9.777
				C49.524,63.229,49.642,63.08,49.757,62.813z"/>
			
				<path fill-rule="evenodd" clip-rule="evenodd" fill="none" stroke="#A7C244" stroke-width="2" stroke-linecap="round" stroke-linejoin="round" stroke-miterlimit="10" d="
				M83.599,62.592c0.404,3.988,0.656,7.59-0.016,11.174c-0.387,2.057-1.293,3.902-2.783,5.412
				c-3.293,3.328-7.582,4.816-11.797,6.525c-1.75-7.975-0.34-13.643,6.078-17.93C77.757,65.986,80.581,64.418,83.599,62.592z"/>
			
				<path fill-rule="evenodd" clip-rule="evenodd" fill="none" stroke="#A7C244" stroke-width="2" stroke-linecap="round" stroke-linejoin="round" stroke-miterlimit="10" d="
				M68.997,65.934c-0.732-3.424-0.939-6.43-0.34-9.428c0.541-2.713,1.809-5.16,4.02-6.807c3.385-2.52,6.971-4.768,10.787-7.342
				c0.182,1.119,0.377,1.752,0.371,2.385c-0.016,2.764,0.076,5.543-0.182,8.289c-0.344,3.627-2.346,6.393-5.436,8.191
				C75.302,62.92,72.206,64.311,68.997,65.934z"/>
			
				<path fill-rule="evenodd" clip-rule="evenodd" fill="none" stroke="#A7C244" stroke-width="2" stroke-linecap="round" stroke-linejoin="round" stroke-miterlimit="10" d="
				M69.052,105.387c-1.688-7.223-0.688-13.197,5.115-17.328c2.924-2.082,6.072-3.846,9.119-5.754
				c0.162,0.074,0.324,0.148,0.486,0.223c0.059,2.527,0.158,5.053,0.166,7.578c0.023,5.641-2.729,9.541-7.693,11.969
				C73.888,103.227,71.479,104.273,69.052,105.387z"/>
		</g>
		<g>
			<g>
				<path fill="#5E8039" d="M132.399,65.557c0-35.992-31.108-65.295-65.108-65.527v10.059c29,0.232,55.051,25.021,55.051,55.469
					s-26.051,55.236-55.051,55.469v10.059C101.291,130.85,132.399,101.549,132.399,65.557z"/>
			</g>
			<g>
				<path fill="#A7C244" d="M65.98,121.035c-30.592,0-55.922-24.889-55.922-55.479c0-30.592,25.551-55.48,56.142-55.48
					c0.144,0,0.091,0.012,1.091,0.012V0.029c-1,0-1.166-0.012-1.311-0.012C29.842,0.018,0,29.42,0,65.557s30.062,65.537,66.2,65.537
					c0.144,0,0.091-0.01,1.091-0.01v-10.059C66.291,121.025,66.125,121.035,65.98,121.035z"/>
			</g>
			<circle fill="#A7C244" cx="67.141" cy="5.029" r="5.03"/>
			<circle fill="#5E8039" cx="65.141" cy="126.033" r="5.03"/>
		</g>
	</g>
	<path fill="#5E8039" d="M65.142,121.004c0,0,1.853,0.09,2.493,0s0.656,0.988,0.656,0.988s-1.078,0.594-1.141,0.594
		S65.142,121.004,65.142,121.004z"/>
	<path fill="#5E8039" d="M65.142,131.063c0,0,1.852-0.01,2.431,0s0.938-1.039,0.938-1.039l-1.684-0.203"/>
</g>
</svg>
