<?xml version="1.0" encoding="utf-8"?>
<!-- Generator: Adobe Illustrator 16.0.0, SVG Export Plug-In . SVG Version: 6.00 Build 0)  -->
<!DOCTYPE svg PUBLIC "-//W3C//DTD SVG 1.1//EN" "http://www.w3.org/Graphics/SVG/1.1/DTD/svg11.dtd">
<svg version="1.1" xmlns="http://www.w3.org/2000/svg" xmlns:xlink="http://www.w3.org/1999/xlink" x="0px" y="0px"
	 width="132.066px" height="131.415px" viewBox="0 0 132.066 131.415" enable-background="new 0 0 132.066 131.415"
	 xml:space="preserve">
<g id="Guides" display="none">
</g>
<g id="_x31_2_Col_Grid" display="none" opacity="0.1" enable-background="new    ">
</g>
<g id="Layer_3">
	<g>
		<circle fill="none" stroke="#A7C244" stroke-width="2" stroke-miterlimit="10" cx="43.297" cy="50.071" r="9.223"/>
		<path fill="none" stroke="#A7C244" stroke-width="2" stroke-miterlimit="10" d="M64.659,81.599c0.826,0,1.663-0.314,2.293-0.943
			L78.83,68.78c1.261-1.26,1.266-3.305,0.005-4.564c-1.26-1.26-3.303-1.26-4.564,0l-9.591,9.441c0,0-10.248-11.662-12.876-11.662
			c-2.629,0-15.193,0-15.193,0c-3.043,0-6.221,2.785-6.221,5.828v23.064h23.837V73.312l7.758,7.344
			C62.614,81.284,63.834,81.599,64.659,81.599z"/>
		<polygon fill="none" stroke="#A7C244" stroke-width="2" stroke-miterlimit="10" points="61.45,41.046 61.45,65.044 64.327,68.083 
			66.507,65.911 66.507,46.825 96.123,46.825 96.123,85.833 61.45,85.833 61.45,90.888 101.18,90.888 101.18,41.046 		"/>
	</g>
	<g>
		<g>
			<path fill="#5E8039" d="M132.066,65.878c0-35.992-31.108-65.295-65.108-65.527v10.059c29,0.232,55.051,25.021,55.051,55.469
				s-26.051,55.236-55.051,55.469v10.059C100.958,131.171,132.066,101.87,132.066,65.878z"/>
		</g>
		<g>
			<path fill="#A7C244" d="M65.847,121.356c-30.592,0-55.82-24.889-55.82-55.479c0-30.592,25.399-55.48,55.99-55.48
				c0.144,0-0.06,0.012,0.94,0.012V0.351c-1,0-0.966-0.012-1.111-0.012c-36.139,0-65.878,29.402-65.878,65.539
				s29.91,65.537,66.049,65.537c0.144,0-0.06-0.01,0.94-0.01v-10.059C65.958,121.347,65.992,121.356,65.847,121.356z"/>
		</g>
		<circle fill="#A7C244" cx="65.209" cy="5.351" r="5.03"/>
		<circle fill="#5E8039" cx="65.209" cy="126.354" r="5.03"/>
	</g>
</g>
</svg>
