<?xml version="1.0" encoding="utf-8"?>
<!-- Generator: Adobe Illustrator 16.0.0, SVG Export Plug-In . SVG Version: 6.00 Build 0)  -->
<!DOCTYPE svg PUBLIC "-//W3C//DTD SVG 1.1//EN" "http://www.w3.org/Graphics/SVG/1.1/DTD/svg11.dtd">
<svg version="1.1" xmlns="http://www.w3.org/2000/svg" xmlns:xlink="http://www.w3.org/1999/xlink" x="0px" y="0px"
	 width="132.066px" height="131.708px" viewBox="0 0 132.066 131.708" enable-background="new 0 0 132.066 131.708"
	 xml:space="preserve">
<g id="Guides" display="none">
</g>
<g id="_x31_2_Col_Grid" display="none" opacity="0.1" enable-background="new    ">
</g>
<g id="Layer_3">
	<g>
		<g>
			<path fill="#A7C244" d="M66.492,37.289c-0.001,0-0.002,0-0.002,0c-0.523,0-1.02,0.234-1.35,0.641
				c-0.764,0.941-18.72,23.191-18.658,36.715c0.049,10.889,8.638,19.102,19.978,19.102c11.39,0,19.978-8.215,19.978-19.109
				c0-13.518-17.838-35.762-18.597-36.703C67.512,37.527,67.016,37.289,66.492,37.289z M66.46,90.271
				c-9.368,0-16.464-6.725-16.503-15.643c-0.047-10.27,12.352-27.326,16.528-32.777c4.154,5.457,16.478,22.512,16.478,32.785
				C82.963,83.551,75.867,90.271,66.46,90.271z"/>
		</g>
		<g>
			<g>
				<path fill="#5E8039" d="M132.108,65.527C132.108,29.535,101,0.232,67,0v10.059c29,0.232,55.051,25.021,55.051,55.469
					S96,120.764,67,120.996v10.059C101,130.82,132.108,101.52,132.108,65.527z"/>
			</g>
			<g>
				<path fill="#A7C244" d="M65.91,121.006c-30.592,0-55.81-24.889-55.81-55.479c0-30.592,25.384-55.48,55.975-55.48
					c0.144,0-0.075,0.012,0.925,0.012V0c-1,0-0.945-0.012-1.09-0.012c-36.139,0-65.868,29.402-65.868,65.539
					s29.895,65.537,66.033,65.537c0.144,0-0.075-0.01,0.925-0.01v-10.059C66,120.996,66.055,121.006,65.91,121.006z"/>
			</g>
			<circle fill="#A7C244" cx="66.293" cy="5" r="5.03"/>
			<path fill="#5E8039" d="M70.323,126.004c0,2.777-2.252,5.029-5.029,5.029c-2.778,0-5.03-2.252-5.03-5.029
				c0-2.779,2.252-5.029,5.03-5.029c0.122,0,0.243,0.004,0.363,0.013C68.265,121.173,70.323,123.347,70.323,126.004z"/>
		</g>
	</g>
	<path fill="#5E8039" d="M67.172,121.293L67.172,121.293L66,121.152v-0.165c0,0,1.725,0.018,2.133,0"/>
	<path fill="#5E8039" d="M65.294,131.033c0,0,2.11,0.014,2.753,0s0.719-1.146,0.719-1.146L65.294,131.033z"/>
	<path fill="#5E8039" d="M67.172,121.293L67.172,121.293L66,121.152v-0.165c0,0,1.725,0.018,2.133,0"/>
	<path fill="#5E8039" d="M65.294,131.033c0,0,2.11,0.014,2.753,0s0.719-1.146,0.719-1.146L65.294,131.033z"/>
</g>
</svg>
