<?xml version="1.0" encoding="utf-8"?>
<!-- Generator: Adobe Illustrator 16.0.0, SVG Export Plug-In . SVG Version: 6.00 Build 0)  -->
<!DOCTYPE svg PUBLIC "-//W3C//DTD SVG 1.1//EN" "http://www.w3.org/Graphics/SVG/1.1/DTD/svg11.dtd">
<svg version="1.1" xmlns="http://www.w3.org/2000/svg" xmlns:xlink="http://www.w3.org/1999/xlink" x="0px" y="0px"
	 width="132.066px" height="131.031px" viewBox="0 0 132.066 131.031" enable-background="new 0 0 132.066 131.031"
	 xml:space="preserve">
<g id="Guides" display="none">
</g>
<g id="_x31_2_Col_Grid" display="none" opacity="0.1" enable-background="new    ">
</g>
<g id="Layer_3">
	<g>
		<g>
			<path fill-rule="evenodd" clip-rule="evenodd" fill="#A7C244" d="M48.164,94.741c0.533,0,0.973,0.439,0.973,0.978
				c0,0.535-0.439,0.974-0.973,0.974c-3.228,0-6.155-1.312-8.273-3.43c-2.117-2.123-3.426-5.047-3.426-8.273
				c0-3.023,1.164-5.812,3.079-7.905c1.914-2.09,4.587-3.494,7.598-3.745c0.535-0.045,1.005,0.354,1.05,0.89
				c0.044,0.534-0.355,1.004-0.89,1.052c-2.509,0.209-4.735,1.372-6.322,3.112c-1.596,1.743-2.565,4.068-2.565,6.597
				c0,2.696,1.094,5.138,2.857,6.9C43.029,93.653,45.466,94.741,48.164,94.741z"/>
			<path fill-rule="evenodd" clip-rule="evenodd" fill="#A7C244" d="M84.245,94.741c0.539,0,0.977,0.439,0.977,0.978
				c0,0.535-0.438,0.974-0.977,0.974H47.947c-0.537,0-0.973-0.438-0.973-0.974c0-0.538,0.436-0.978,0.973-0.978H84.245z"/>
			<path fill-rule="evenodd" clip-rule="evenodd" fill="#A7C244" d="M54.872,75.409c0.438,0.303,0.547,0.913,0.24,1.353
				c-0.308,0.438-0.914,0.545-1.353,0.238c-0.503-0.355-1.054-0.662-1.632-0.921l-0.08-0.035c-0.539-0.236-1.112-0.428-1.702-0.563
				c-0.631-0.145-1.281-0.224-1.936-0.239c-0.626-0.017-1.28,0.031-1.942,0.145c-0.53,0.095-1.032-0.265-1.124-0.791
				c-0.093-0.53,0.263-1.033,0.788-1.124c0.775-0.136,1.553-0.191,2.326-0.177c0.794,0.025,1.571,0.121,2.317,0.292
				c0.698,0.163,1.388,0.392,2.05,0.678l0.084,0.036C53.586,74.599,54.25,74.97,54.872,75.409z"/>
			<path fill-rule="evenodd" clip-rule="evenodd" fill="#A7C244" d="M44.397,84.989c0,0.534-0.434,0.974-0.973,0.974
				s-0.978-0.439-0.978-0.974c0-0.383,0.041-0.766,0.119-1.148h-0.004c0.077-0.371,0.192-0.741,0.344-1.102
				c0.147-0.354,0.326-0.686,0.53-0.98c0.207-0.315,0.446-0.606,0.706-0.861c0.259-0.264,0.551-0.503,0.861-0.711
				c0.299-0.199,0.631-0.382,0.986-0.525c0.278-0.121,0.565-0.215,0.853-0.288l0.04-0.008c0.287-0.072,0.571-0.119,0.846-0.144
				c0.539-0.048,1.009,0.352,1.058,0.885c0.048,0.535-0.352,1.014-0.887,1.058c-0.199,0.021-0.382,0.048-0.549,0.084l-0.041,0.012
				c-0.199,0.048-0.395,0.116-0.571,0.188c-0.215,0.093-0.434,0.212-0.641,0.352c-0.204,0.135-0.396,0.295-0.574,0.478
				c-0.18,0.177-0.34,0.367-0.476,0.572c-0.14,0.211-0.259,0.426-0.351,0.645c-0.093,0.221-0.168,0.467-0.22,0.73h-0.004v0.004
				C44.425,84.459,44.397,84.718,44.397,84.989z"/>
			<path fill-rule="evenodd" clip-rule="evenodd" fill="#A7C244" d="M84.245,96.692c-0.539,0-0.978-0.438-0.978-0.974
				c0-0.538,0.438-0.978,0.978-0.978c0.877,0,1.723-0.082,2.528-0.247c0.837-0.167,1.644-0.419,2.409-0.745
				c0.742-0.311,1.459-0.706,2.143-1.164c0.67-0.451,1.303-0.974,1.883-1.557c0.577-0.578,1.1-1.213,1.555-1.883
				c0.458-0.677,0.85-1.4,1.164-2.141c0.324-0.767,0.58-1.576,0.746-2.41c0.16-0.802,0.248-1.646,0.248-2.525
				c0-0.877-0.088-1.723-0.248-2.523c-0.166-0.839-0.422-1.648-0.746-2.414c-0.314-0.742-0.706-1.464-1.164-2.146
				c-0.455-0.671-0.978-1.305-1.555-1.883c-0.58-0.579-1.213-1.101-1.883-1.556c-0.684-0.455-1.4-0.85-2.143-1.165
				c-0.766-0.322-1.572-0.573-2.409-0.746c-0.806-0.163-1.651-0.242-2.528-0.242s-1.724,0.079-2.521,0.242
				c-0.838,0.173-1.646,0.424-2.416,0.746c-0.742,0.315-1.465,0.71-2.144,1.165c-0.67,0.455-1.304,0.977-1.882,1.557
				c-0.379,0.382-1.002,0.382-1.381,0c-0.378-0.384-0.378-0.998,0-1.382c0.658-0.658,1.389-1.261,2.174-1.79
				c0.767-0.515,1.596-0.966,2.479-1.34c0.889-0.372,1.822-0.667,2.787-0.857c0.954-0.192,1.923-0.296,2.904-0.296
				c0.98,0,1.955,0.104,2.906,0.296c0.966,0.19,1.9,0.485,2.785,0.857c0.882,0.374,1.711,0.825,2.477,1.344
				c0.781,0.527,1.516,1.129,2.174,1.786c0.658,0.658,1.262,1.393,1.791,2.178c0.514,0.768,0.965,1.597,1.337,2.478
				c0.374,0.89,0.666,1.819,0.862,2.788c0.193,0.95,0.293,1.923,0.293,2.903c0,0.979-0.104,1.955-0.293,2.904
				c-0.196,0.966-0.484,1.898-0.862,2.785c-0.372,0.877-0.823,1.71-1.337,2.476c-0.529,0.786-1.133,1.516-1.791,2.174
				c-0.658,0.662-1.393,1.261-2.174,1.792c-0.766,0.515-1.595,0.969-2.477,1.34c-0.885,0.374-1.819,0.666-2.785,0.857
				C86.2,96.589,85.225,96.692,84.245,96.692z"/>
			<path fill-rule="evenodd" clip-rule="evenodd" fill="#A7C244" d="M82.485,63.188c0.344,0.411,0.287,1.024-0.123,1.368
				c-0.411,0.34-1.025,0.283-1.368-0.127c-0.755-0.905-1.587-1.744-2.493-2.485c-0.901-0.75-1.867-1.408-2.884-1.97
				c-0.47-0.256-0.643-0.851-0.388-1.32c0.26-0.472,0.854-0.643,1.324-0.388c1.126,0.622,2.195,1.349,3.191,2.174
				C80.727,61.253,81.644,62.175,82.485,63.188L82.485,63.188z M53.384,60.65c0.407-0.351,1.021-0.299,1.367,0.108
				c0.348,0.406,0.299,1.021-0.111,1.367c-1.081,0.922-2.066,1.979-2.923,3.151c-0.835,1.132-1.545,2.385-2.103,3.719
				c-0.204,0.493-0.773,0.729-1.269,0.525c-0.499-0.207-0.733-0.773-0.526-1.272c0.618-1.479,1.403-2.86,2.33-4.119
				C51.086,62.845,52.175,61.68,53.384,60.65z"/>
			<path fill-rule="evenodd" clip-rule="evenodd" fill="#A7C244" d="M91.069,82.065c0,0.539-0.436,0.979-0.974,0.979
				s-0.978-0.439-0.978-0.979c0-0.347-0.031-0.67-0.092-0.973l0,0h-0.004c-0.066-0.33-0.163-0.642-0.282-0.93
				c-0.116-0.275-0.269-0.55-0.45-0.821l-0.021-0.032c-0.163-0.235-0.359-0.47-0.578-0.694l-0.051-0.052
				c-0.204-0.203-0.432-0.386-0.666-0.545c-0.264-0.177-0.543-0.328-0.826-0.447c-0.283-0.121-0.594-0.217-0.926-0.284l-0.075-0.016
				c-0.28-0.052-0.583-0.08-0.901-0.08c-0.539,0-0.978-0.438-0.978-0.977c0-0.535,0.438-0.974,0.978-0.974
				c0.422,0,0.846,0.045,1.268,0.119l0.088,0.016c0.438,0.089,0.877,0.225,1.3,0.403c0.407,0.177,0.798,0.388,1.153,0.627
				c0.344,0.227,0.666,0.49,0.953,0.777l0.064,0.056c0.283,0.284,0.55,0.61,0.793,0.962l0.041,0.056
				c0.238,0.351,0.451,0.742,0.625,1.156c0.176,0.423,0.315,0.862,0.403,1.301h-0.004C91.022,81.161,91.069,81.614,91.069,82.065z"
				/>
			<path fill-rule="evenodd" clip-rule="evenodd" fill="#A7C244" d="M69.618,52.67h4.279c0.539,0,0.978,0.438,0.978,0.977
				c0,0.175-0.048,0.344-0.131,0.487L64.269,77.698c-0.215,0.487-0.789,0.71-1.276,0.495c-0.362-0.159-0.578-0.515-0.578-0.887
				H62.41v-17.43h-4.283c-0.539,0-0.977-0.435-0.977-0.973c0-0.18,0.052-0.344,0.131-0.487l10.474-23.565
				c0.216-0.489,0.789-0.71,1.277-0.493c0.362,0.159,0.577,0.51,0.577,0.885h0.009V52.67L69.618,52.67z M72.407,54.62h-3.742H68.64
				c-0.538,0-0.974-0.438-0.974-0.974V39.827L59.622,57.93h3.737h0.025c0.537,0,0.977,0.436,0.977,0.975v13.816L72.407,54.62z"/>
		</g>
		<g>
			<g>
				<path fill="#5E8039" d="M133.108,65.494C133.108,29.502,102,0.199,68-0.033v10.059c29,0.232,55.051,25.021,55.051,55.469
					S97,120.73,68,120.963v10.059C102,130.787,133.108,101.486,133.108,65.494z"/>
			</g>
			<g>
				<path fill="#A7C244" d="M67.049,120.973c-30.592,0-55.741-24.889-55.741-55.479c0-30.592,25.28-55.48,55.871-55.48
					c0.144,0-0.179,0.012,0.821,0.012V-0.033c-1,0-0.807-0.012-0.951-0.012C30.91-0.045,1.25,29.357,1.25,65.494
					s29.791,65.537,65.93,65.537c0.144,0-0.179-0.01,0.821-0.01v-10.059C67,120.963,67.193,120.973,67.049,120.973z"/>
			</g>
			<circle fill="#A7C244" cx="66.57" cy="4.967" r="5.03"/>
			<circle fill="#5E8039" cx="66.57" cy="125.971" r="5.03"/>
		</g>
	</g>
</g>
</svg>
